<?xml version="1.0" encoding="utf-8"?>
<!-- Generator: Adobe Illustrator 23.0.3, SVG Export Plug-In . SVG Version: 6.00 Build 0)  -->
<svg version="1.1" id="Capa_1" xmlns="http://www.w3.org/2000/svg" xmlns:xlink="http://www.w3.org/1999/xlink" x="0px" y="0px"
	 viewBox="0 0 402 402" style="enable-background:new 0 0 402 402;" xml:space="preserve">
<style type="text/css">
	.st0{fill:url(#SVGID_1_);}
</style>
<linearGradient id="SVGID_1_" gradientUnits="userSpaceOnUse" x1="54.818" y1="200.999" x2="347.18" y2="200.999">
	<stop  offset="0" style="stop-color:#1245C6"/>
	<stop  offset="1" style="stop-color:#9909B7"/>
</linearGradient>
<path className="st0" d="M73.1,164.5h255.8c4.9,0,9.2-1.8,12.8-5.4c3.6-3.6,5.4-7.9,5.4-12.8s-1.8-9.2-5.4-12.9L213.8,5.4
	C210.2,1.8,206,0,201,0s-9.2,1.8-12.9,5.4L60.2,133.3c-3.6,3.6-5.4,7.9-5.4,12.9c0,4.9,1.8,9.2,5.4,12.8
	C63.9,162.6,68.1,164.5,73.1,164.5z M328.9,237.5H73.1c-5,0-9.2,1.8-12.8,5.4c-3.6,3.6-5.4,7.9-5.4,12.8c0,4.9,1.8,9.2,5.4,12.8
	l127.9,127.9c3.6,3.6,7.9,5.4,12.9,5.4s9.2-1.8,12.8-5.4l127.9-127.9c3.6-3.6,5.4-7.9,5.4-12.8c0-4.9-1.8-9.2-5.4-12.8
	C338.1,239.4,333.9,237.5,328.9,237.5z"/>
</svg>
